<svg width="80" height="80" viewBox="0 0 80 80" fill="none" xmlns="http://www.w3.org/2000/svg">
<circle opacity="0.1" cx="40" cy="40" r="40" fill="#27AE60"/>
<path d="M56.483 25.5688C54.4656 23.5294 51.7404 22.4019 48.8092 22.3936C45.7923 22.3835 42.7688 23.5266 40.3464 25.5587C37.5913 23.1326 35.0991 21.9496 32.7523 21.9496C29.4748 21.9496 26.434 23.2404 24.2106 25.5638C22.5395 27.2349 21.3945 29.429 20.8982 31.9092C20.7496 32.6546 21.2326 33.3794 21.978 33.5285C22.7226 33.6762 23.4482 33.1941 23.5973 32.4486C23.9863 30.5033 24.8712 28.7954 26.1776 27.4886C27.8978 25.6913 30.2331 24.7019 32.7524 24.7019C34.5776 24.7019 36.7887 25.9317 39.3006 28.333C39.5823 28.6161 39.9524 28.7725 40.3428 28.7729C40.3433 28.7729 40.3442 28.7729 40.3446 28.7729C40.7341 28.7729 41.1042 28.6175 41.3863 28.3354C43.4143 26.3074 46.1069 25.1459 48.7767 25.1459C48.7855 25.1459 48.7937 25.1459 48.8019 25.1459C51.0267 25.1519 53.0066 25.9679 54.5111 27.4886C56.2762 29.3322 57.2483 31.7469 57.2483 34.289C57.2483 36.8331 56.2542 39.3079 54.5487 41.0519L40.3669 54.761L29.1216 43.8958C28.5752 43.3679 27.7041 43.3839 27.1757 43.9289C26.6477 44.4757 26.6629 45.3468 27.2092 45.8747L39.411 57.6637C39.6775 57.9215 40.0225 58.0504 40.3669 58.0504C40.7114 58.0504 41.0564 57.9215 41.3234 57.6642L56.4885 43.0037C58.7202 40.7225 60 37.5463 60 34.289C60 31.0344 58.7564 27.9431 56.483 25.5688Z" fill="#27AE60"/>
<path d="M57.523 37.4543H46.422C46.0431 37.4543 45.6816 37.6098 45.422 37.885L41.2491 42.2974L36.4427 31.3947C36.2362 30.9263 35.7867 30.6112 35.2762 30.5768C34.7684 30.5442 34.278 30.7942 34.0105 31.2305L30.1931 37.4543H21.3762C20.616 37.4543 20 38.0703 20 38.8305C20 39.5906 20.616 40.2067 21.3762 40.2067H30.9629C31.4413 40.2067 31.8859 39.9581 32.1359 39.5498L34.9836 34.9076L39.5666 45.303C39.7524 45.725 40.1373 46.0255 40.5914 46.1039C40.6694 46.1172 40.7478 46.1241 40.8258 46.1241C41.201 46.1241 41.5638 45.9709 41.8258 45.6938L47.0148 40.2066H57.523C58.2831 40.2066 58.8992 39.5905 58.8992 38.8304C58.8991 38.0703 58.283 37.4543 57.523 37.4543Z" fill="#27AE60"/>
</svg>
