<svg width="80" height="80" viewBox="0 0 80 80" fill="none" xmlns="http://www.w3.org/2000/svg">
<circle opacity="0.1" cx="40" cy="40" r="40" fill="#2F80ED"/>
<g clip-path="url(#clip0_2_2091)">
<path d="M53.9711 33.24L46.7594 26.0283C46.268 25.5373 45.473 25.5369 44.9816 26.0274L26.4073 44.5599L28.1842 46.3411L45.8693 28.6958L51.304 34.131L33.6592 51.8157L35.4399 53.5926L53.9724 35.0178C54.4625 34.5263 54.4622 33.7306 53.9711 33.24Z" fill="#2F80ED"/>
<path d="M56.1099 25.6515L54.349 23.8905C53.9389 23.4804 53.3024 23.4037 52.8068 23.7047L46.7272 27.3944L48.0324 29.545L53.268 26.3672L53.6328 26.7323L50.4554 31.9679L52.606 33.2732L56.2957 27.1935C56.5967 26.698 56.52 26.0611 56.1099 25.6515Z" fill="#2F80ED"/>
<path d="M37.7867 54.1633L25.837 42.2136C25.346 41.7222 24.5494 41.7222 24.0584 42.2136C23.567 42.7047 23.567 43.5013 24.0584 43.9922L36.0081 55.9419C36.2534 56.1876 36.5754 56.3104 36.8974 56.3104C37.219 56.3104 37.5415 56.1875 37.7867 55.9419C38.2781 55.451 38.2781 54.6543 37.7867 54.1633Z" fill="#2F80ED"/>
<path d="M37.4726 43.1787L25.7336 54.9609L27.5155 56.7362L39.2545 44.954L37.4726 43.1787Z" fill="#2F80ED"/>
<path d="M35.0011 40.707L23.2621 52.4893L25.0439 54.2646L36.7829 42.4823L35.0011 40.707Z" fill="#2F80ED"/>
<path d="M30.4491 57.8529L22.1473 49.5506C21.6559 49.0595 20.8592 49.0588 20.3682 49.5506C19.8772 50.0416 19.8772 50.8377 20.3682 51.3292L28.6701 59.6315C28.9158 59.8772 29.2378 60 29.5597 60C29.8813 60 30.2038 59.8771 30.449 59.6315C30.9401 59.1405 30.9401 58.3443 30.4491 57.8529Z" fill="#2F80ED"/>
<path d="M59.6315 20.3687C59.1401 19.8773 58.3443 19.8773 57.8529 20.3687L53.4503 24.7712C52.9589 25.2622 52.9589 26.0588 53.4503 26.5498C53.696 26.7955 54.0176 26.9183 54.3396 26.9183C54.6617 26.9183 54.9836 26.7954 55.2289 26.5498L59.6314 22.1473C60.1229 21.6563 60.1229 20.8597 59.6315 20.3687Z" fill="#2F80ED"/>
<path d="M34.5997 38.3131L32.8209 40.0919L39.9066 47.1776L41.6854 45.3988L34.5997 38.3131Z" fill="#2F80ED"/>
</g>
<defs>
<clipPath id="clip0_2_2091">
<rect width="40" height="40" fill="white" transform="translate(20 20)"/>
</clipPath>
</defs>
</svg>
