<svg width="80" height="80" viewBox="0 0 80 80" fill="none" xmlns="http://www.w3.org/2000/svg">
<circle opacity="0.1" cx="40" cy="40" r="40" fill="#855FCE"/>
<path d="M49.2906 20H30.7552C29.9968 20 29.3822 20.6146 29.3822 21.373V28.1006C29.3822 28.859 29.9968 29.4736 30.7552 29.4736H49.2906C50.049 29.4736 50.6636 28.859 50.6636 28.1006V21.373C50.6636 20.6146 50.049 20 49.2906 20ZM47.9177 26.7277H32.1281V22.746H47.9176V26.7277H47.9177Z" fill="#855FCE"/>
<path d="M47.3227 28.1467H44.5767V34.4625H47.3227V28.1467Z" fill="#855FCE"/>
<path d="M35.4234 28.1467H32.6774V34.4625H35.4234V28.1467Z" fill="#855FCE"/>
<path d="M49.9771 33.0892H30.0229C28.7611 33.0892 27.7345 34.1158 27.7345 35.3776V57.7117C27.7345 58.9735 28.7611 60 30.0229 60H49.9771C51.2389 60 52.2654 58.9735 52.2654 57.7117V35.3776C52.2654 34.1158 51.2389 33.0892 49.9771 33.0892ZM49.5194 57.254H30.4805V35.8352H49.5194V57.254Z" fill="#855FCE"/>
<path d="M39.9999 40.2745C39.2416 40.2745 38.627 40.8891 38.627 41.6475V51.4416C38.627 52.1999 39.2416 52.8145 39.9999 52.8145C40.7583 52.8145 41.3729 52.1999 41.3729 51.4416V41.6475C41.3729 40.8891 40.7583 40.2745 39.9999 40.2745Z" fill="#855FCE"/>
<path d="M44.897 45.1716H35.1029C34.3446 45.1716 33.73 45.7862 33.73 46.5446C33.73 47.303 34.3446 47.9176 35.1029 47.9176H44.897C45.6558 47.9176 46.27 47.303 46.27 46.5446C46.27 45.7862 45.6554 45.1716 44.897 45.1716Z" fill="#855FCE"/>
</svg>
