<svg width="24.000000" height="24.000000" viewBox="0 0 24 24" fill="none" xmlns="http://www.w3.org/2000/svg" xmlns:xlink="http://www.w3.org/1999/xlink">
	<desc>
			Created with Pixso.
	</desc>
	<defs>
		<clipPath id="clip2_1808">
			<rect id="Badge-Obat/007-stethoscope" rx="-0.500000" width="23.000000" height="23.000000" transform="translate(0.500000 0.500000)" fill="white" fill-opacity="0"/>
		</clipPath>
	</defs>
	<rect id="Badge-Obat/007-stethoscope" rx="-0.500000" width="23.000000" height="23.000000" transform="translate(0.500000 0.500000)" fill="#FFFFFF" fill-opacity="0"/>
	<g clip-path="url(#clip2_1808)">
		<path id="Vector" d="M17.5 1.14L14.92 1.14L14.92 2.73L16.7 2.73L16.7 6.29C16.7 8.98 14.52 11.16 11.84 11.16L11.46 11.16C8.78 11.16 6.6 8.98 6.6 6.29L6.6 2.73L8.38 2.73L8.38 1.14L5.8 1.14C5.36 1.14 5.01 1.49 5.01 1.94L5.01 6.29C5.01 9.86 7.9 12.75 11.46 12.75L11.84 12.75C15.4 12.75 18.29 9.86 18.29 6.29L18.29 1.94C18.29 1.49 17.94 1.14 17.5 1.14Z" fill="#FFFFFF" fill-opacity="1.000000" fill-rule="nonzero"/>
		<path id="Vector" d="M14.84 0C14.4 0 14.04 0.35 14.04 0.79L14.04 3.02C14.04 3.47 14.4 3.82 14.84 3.82C15.28 3.82 15.64 3.47 15.64 3.02L15.64 0.79C15.64 0.35 15.28 0 14.84 0Z" fill="#FFFFFF" fill-opacity="1.000000" fill-rule="nonzero"/>
		<path id="Vector" d="M8.54 0C8.1 0 7.74 0.35 7.74 0.79L7.74 3.02C7.74 3.47 8.1 3.82 8.54 3.82C8.98 3.82 9.34 3.47 9.34 3.02L9.34 0.79C9.34 0.35 8.98 0 8.54 0Z" fill="#FFFFFF" fill-opacity="1.000000" fill-rule="nonzero"/>
		<path id="Vector" d="M12.5 16.45L12.5 11.93L10.91 11.93L10.91 16.45L8.33 16.45C6.25 16.45 4.55 18.14 4.55 20.22C4.55 22.3 6.26 24 8.35 24L8.73 24C10.81 24 12.5 22.3 12.5 20.22L12.5 18.04L15.21 18.04L15.21 16.45L12.5 16.45ZM10.91 20.22C10.91 21.42 9.93 22.4 8.73 22.4L8.35 22.4C7.12 22.4 6.15 21.44 6.15 20.22C6.15 19.02 7.13 18.04 8.33 18.04L10.91 18.04L10.91 20.22Z" fill="#FFFFFF" fill-opacity="1.000000" fill-rule="nonzero"/>
		<path id="Vector" d="M16.94 14.75C15.56 14.75 14.44 15.87 14.44 17.24C14.44 18.62 15.56 19.74 16.94 19.74C18.32 19.74 19.44 18.62 19.44 17.24C19.44 15.87 18.32 14.75 16.94 14.75ZM16.94 18.15C16.44 18.15 16.04 17.74 16.04 17.24C16.04 16.75 16.44 16.34 16.94 16.34C17.44 16.34 17.84 16.75 17.84 17.24C17.84 17.74 17.44 18.15 16.94 18.15Z" fill="#FFFFFF" fill-opacity="1.000000" fill-rule="nonzero"/>
	</g>
</svg>
